<?xml version="1.0" standalone="no"?>
<!DOCTYPE svg PUBLIC "-//W3C//DTD SVG 20010904//EN"
 "http://www.w3.org/TR/2001/REC-SVG-20010904/DTD/svg10.dtd">
<svg version="1.0" xmlns="http://www.w3.org/2000/svg"
 width="1024.000000pt" height="1024.000000pt" viewBox="0 0 1024.000000 1024.000000"
 preserveAspectRatio="xMidYMid meet">
<metadata>
Created by potrace 1.14, written by Peter Selinger 2001-2017
</metadata>
<g transform="translate(0.000000,1024.000000) scale(0.100000,-0.100000)"
fill="#000000" stroke="none">
<path d="M780 9668 c-105 -8 -234 -44 -315 -87 -236 -126 -412 -363 -452 -610
-5 -25 -8 -1380 -8 -3011 l0 -2965 24 -85 c53 -189 162 -347 321 -467 98 -74
236 -134 340 -149 19 -2 52 -7 72 -10 21 -3 816 -6 1768 -6 951 0 1730 -3
1730 -6 0 -7 -272 -834 -277 -841 -2 -2 -310 -5 -685 -6 -612 -2 -688 -4 -728
-19 -178 -67 -291 -220 -292 -396 0 -88 8 -124 43 -197 55 -115 169 -205 294
-231 58 -12 4981 -10 5029 2 60 15 141 63 192 113 85 83 126 182 126 304 0 88
-23 163 -71 235 -39 58 -136 144 -163 144 -8 0 -18 4 -23 9 -36 32 -88 35
-767 36 -373 1 -679 3 -681 6 -5 6 -277 832 -277 840 0 4 777 7 1728 7 950 0
1752 3 1782 7 370 41 686 345 738 710 9 66 9 5907 0 5965 -29 179 -108 330
-243 465 -101 101 -257 193 -377 221 -10 2 -28 6 -40 9 -13 3 -52 8 -88 11
-94 9 -8587 10 -8700 2z m8318 -3691 c2 -2430 1 -2557 -15 -2558 -10 0 -1801
-1 -3980 -2 l-3963 -2 0 2556 c0 1406 2 2558 4 2560 2 2 1792 4 3978 4 l3973
-1 3 -2557z"/>
</g>
</svg>
