<?xml version="1.0" standalone="no"?>
<!DOCTYPE svg PUBLIC "-//W3C//DTD SVG 20010904//EN"
 "http://www.w3.org/TR/2001/REC-SVG-20010904/DTD/svg10.dtd">
<svg version="1.0" xmlns="http://www.w3.org/2000/svg"
 width="512.000000pt" height="512.000000pt" viewBox="0 0 512.000000 512.000000"
 preserveAspectRatio="xMidYMid meet">
<metadata>
Created by potrace 1.14, written by Peter Selinger 2001-2017
</metadata>
<g transform="translate(0.000000,512.000000) scale(0.100000,-0.100000)"
fill="#000000" stroke="none">
<path d="M2201 4940 c-246 -88 -314 -406 -123 -581 70 -65 142 -93 237 -93 94
0 165 27 234 90 182 164 135 465 -88 571 -74 34 -183 40 -260 13z"/>
<path d="M4087 4938 c-172 -67 -260 -235 -219 -415 22 -95 100 -185 200 -231
83 -38 193 -37 280 3 201 90 267 349 134 523 -45 60 -65 76 -130 107 -77 38
-187 43 -265 13z"/>
<path d="M3185 4690 c-60 -14 -121 -48 -168 -94 -217 -210 -78 -576 225 -590
153 -8 277 69 340 211 33 74 31 199 -4 275 -55 119 -171 198 -297 203 -36 1
-79 -1 -96 -5z"/>
<path d="M2123 4035 c-248 -67 -443 -248 -522 -486 -41 -125 -51 -239 -26
-304 54 -142 323 -239 692 -249 l103 -3 -3 38 c-5 61 11 186 34 263 60 203
191 379 370 499 l77 50 -41 35 c-195 162 -448 220 -684 157z"/>
<path d="M4085 4053 c-87 -18 -147 -38 -208 -69 -78 -39 -197 -123 -196 -139
0 -5 32 -30 70 -55 127 -81 239 -208 309 -349 60 -119 97 -273 94 -393 l-1
-56 106 3 c98 4 129 7 236 21 70 9 179 36 208 50 15 8 27 12 27 9 0 -11 106
48 149 83 62 51 84 104 77 195 -20 291 -191 533 -455 646 -40 17 -100 37 -132
45 -55 12 -239 18 -284 9z"/>
<path d="M3110 3784 c-154 -33 -281 -102 -389 -214 -130 -132 -202 -300 -214
-492 -8 -119 58 -195 225 -263 69 -28 215 -61 324 -72 126 -13 477 -5 504 12
3 2 26 6 50 10 63 9 214 60 263 90 105 61 140 117 139 220 -2 267 -180 536
-432 653 -36 17 -95 38 -130 48 -85 22 -256 27 -340 8z"/>
<path d="M1860 2128 c-114 -16 -187 -45 -585 -238 -93 -45 -189 -90 -211 -100
-49 -22 -58 -33 -45 -57 6 -10 72 -166 147 -348 75 -181 144 -348 154 -370 9
-22 34 -81 55 -132 l37 -91 37 15 c20 8 66 31 103 49 165 83 235 80 598 -26
151 -45 285 -83 298 -86 13 -2 42 -11 65 -19 208 -70 307 -71 532 -4 61 18
665 244 720 270 11 5 220 86 465 180 244 94 460 179 480 189 90 46 169 168
178 273 8 96 -29 162 -114 202 -45 21 -71 26 -137 27 -157 2 -134 8 -857 -203
-334 -98 -345 -101 -351 -108 -4 -3 -10 -28 -13 -56 -9 -74 -12 -87 -37 -141
-45 -96 -159 -182 -271 -203 -73 -13 -129 -4 -343 54 -110 29 -312 84 -450
120 -142 38 -257 74 -267 83 -25 25 -29 65 -8 92 21 28 59 30 140 7 63 -18
427 -116 450 -122 18 -4 172 -45 295 -78 131 -35 198 -26 273 38 53 45 76 99
76 180 0 63 -4 76 -33 121 -29 44 -104 104 -130 104 -5 0 -157 40 -338 88
-316 84 -333 90 -409 139 -151 97 -276 147 -378 152 -28 1 -52 3 -55 5 -3 1
-35 -2 -71 -6z"/>
<path d="M445 1935 c-99 -41 -195 -83 -213 -92 -44 -24 -76 -91 -68 -141 4
-30 117 -315 181 -457 7 -16 29 -70 49 -120 20 -49 41 -99 46 -110 5 -11 82
-193 170 -405 172 -414 182 -432 259 -446 39 -8 74 3 247 74 205 85 228 97
252 141 12 21 22 53 22 71 0 24 -362 917 -510 1255 -9 22 -36 86 -60 143 -49
118 -82 153 -153 159 -34 3 -74 -10 -222 -72z"/>
</g>
</svg>
